HIERARCHY
ROOT Hips
{
  OFFSET 0 0 0
  CHANNELS 6 Xposition Yposition Zposition Zrotation Yrotation Xrotation
  JOINT LeftThigh
  {
    OFFSET 8.409438 0 -5.917753
    CHANNELS 3 Zrotation Yrotation Xrotation
    JOINT LeftLeg
    {
      OFFSET 0 0 -42.358652
      CHANNELS 3 Zrotation Yrotation Xrotation
      JOINT LeftFoot
      {
        OFFSET 0 0 -39.357303
        CHANNELS 3 Zrotation Yrotation Xrotation
      }
    }
  }
  JOINT RightThigh
  {
    OFFSET -8.409438 0 -5.917753
    CHANNELS 3 Zrotation Yrotation Xrotation
    JOINT RightLeg
    {
      OFFSET 0 0 -42.358652
      CHANNELS 3 Zrotation Yrotation Xrotation
      JOINT RightFoot
      {
        OFFSET 0 0 -39.357303
        CHANNELS 3 Zrotation Yrotation Xrotation
      }
    }
  }
  JOINT SpineLow
  {
    OFFSET 0 0 4.719101
    CHANNELS 3 Zrotation Yrotation Xrotation
    JOINT SpineMid
    {
      OFFSET 0 0 12.899191
      CHANNELS 3 Zrotation Yrotation Xrotation
      JOINT Chest
      {
        OFFSET 0 0 12.899191
        CHANNELS 3 Zrotation Yrotation Xrotation
        JOINT LeftShoulder
        {
          OFFSET 7.550562 1.41573 9.438202
          CHANNELS 3 Zrotation Yrotation Xrotation
          JOINT LeftArm
          {
            OFFSET 9.155056 0 4.247191
            CHANNELS 3 Zrotation Yrotation Xrotation
            JOINT LeftForearm
            {
              OFFSET 0 0 25.771955
              CHANNELS 3 Zrotation Yrotation Xrotation
              JOINT LeftHand
              {
                OFFSET 0 0 25.197169
                CHANNELS 3 Zrotation Yrotation Xrotation
              }
            }
          }
        }
        JOINT RightShoulder
        {
          OFFSET -7.550562 1.41573 9.438202
          CHANNELS 3 Zrotation Yrotation Xrotation
          JOINT RightArm
          {
            OFFSET -9.155056 0 4.247191
            CHANNELS 3 Zrotation Yrotation Xrotation
            JOINT RightForearm
            {
              OFFSET 0 0 -25.771955
              CHANNELS 3 Zrotation Yrotation Xrotation
              JOINT RightHand
              {
                OFFSET 0 0 -25.197169
                CHANNELS 3 Zrotation Yrotation Xrotation
              }
            }
          }
        }
        JOINT Neck
        {
          OFFSET 0 0 15.101124
          CHANNELS 3 Zrotation Yrotation Xrotation
          JOINT Head
          {
            OFFSET 0 0 11.325843
            CHANNELS 3 Zrotation Yrotation Xrotation
            End Site
            {
              OFFSET 0 0 14.157303
            }
          }
        }
      }
    }
  }
}
MOTION
Frames: 13
Frame Time: 0.0
0.0  101.685394  0.0  4.497592  18.674489  -97.873516  29.969757  -24.486255  23.727944  -3.702042  6.202611  33.74428  -18.387981  -9.042508  -13.049305  -18.703653  5.703215  -39.978668  9.86912  4.890331  54.442334  20.839047  2.655933  1.456317  -2.664412  1.53859  2.717122  -7.109418  4.492954  7.257256  -7.109418  4.492954  7.257257  -11.667313  27.397397  2.794334  135.205527  70.128053  -160.512889  -37.99466  -37.080501  84.411189  39.178216  -21.14655  10.526282  14.110516  -8.368896  15.359287  73.111838  37.060562  25.986  -36.298111  28.497223  -102.169253  76.62273  7.665722  31.580711  2.650809  -2.123473  -2.035421  1.98083  -1.601489  -1.517211  
0.0  101.685394  0.0  4.49008  18.789169  -97.730683  30.359044  -24.666493  23.592191  -4.261269  6.326059  33.407673  -18.193733  -8.960974  -12.937717  -18.758935  5.843786  -40.284094  9.20865  5.088426  54.526613  20.777619  2.748577  1.580611  -2.723502  1.526272  2.657072  -7.276426  4.459252  7.090141  -7.276426  4.459252  7.090141  -11.326718  27.506229  3.183688  135.231532  70.077092  -160.694638  -38.335016  -36.669805  84.618998  39.047602  -20.86462  10.635412  14.115965  -8.259986  15.683237  72.97889  36.867916  25.520769  -36.542084  29.008823  -101.839278  76.759866  7.587128  30.079342  2.758434  -2.049505  -1.966577  2.062033  -1.54606  -1.465557  
0.0  101.685394  0.0  4.455246  18.900182  -97.620889  30.689207  -24.844919  23.45049  -4.811141  6.400128  33.047307  -18.00597  -8.827562  -12.817212  -18.820003  6.006909  -40.60479  8.371446  5.380784  54.68406  20.691972  2.7887  1.697339  -2.863713  1.506412  2.578905  -7.667138  4.410941  6.868713  -7.667138  4.410942  6.868713  -10.840181  27.646025  3.500448  135.518086  69.970506  -160.662547  -38.686937  -36.446347  84.696567  38.931027  -20.593717  10.694927  13.944258  -8.187499  15.716969  73.518846  36.43137  25.674906  -36.770659  29.356542  -101.661285  76.918096  7.705386  28.20532  3.138898  -1.90349  -1.867915  2.348163  -1.437271  -1.391071  
0.0  101.685394  0.0  4.438211  19.093916  -97.474165  30.883284  -24.964774  23.385024  -5.182335  6.420358  32.690995  -18.006091  -8.733457  -12.696182  -18.983701  6.138074  -41.01161  7.359006  5.780544  54.855919  20.692359  2.515848  1.836893  -2.936372  1.480695  2.565223  -7.869141  4.34663  6.829081  -7.869142  4.34663  6.829081  -10.728142  27.803853  3.501554  135.217826  70.016437  -161.10109  -39.008259  -36.120689  84.900691  38.794761  -20.387708  10.718593  13.982628  -8.129521  15.682425  73.186127  36.348892  25.415242  -36.866263  29.662595  -101.527052  77.171853  7.87751  26.33522  3.207125  -1.829246  -2.009681  2.399153  -1.382543  -1.497579  
0.0  101.685394  0.0  4.357771  19.16137  -97.402341  31.060458  -25.100569  23.292135  -5.623844  6.439922  32.26525  -17.839417  -8.507101  -12.465699  -19.015189  6.266139  -41.274277  6.196289  6.030763  54.904967  20.530741  2.385274  2.122708  -3.02752  1.452665  2.559421  -8.121337  4.278743  6.810142  -8.121338  4.278743  6.810142  -10.872643  27.844549  3.327309  135.501922  70.04247  -161.188781  -39.331318  -35.953077  85.010511  38.633748  -20.256894  10.699647  14.062314  -8.074144  15.567399  72.966103  36.232361  25.332358  -37.86923  29.959731  -101.214069  77.206661  8.823753  23.510982  3.353959  -1.805263  -2.193154  2.508819  -1.366051  -1.634878  
0.0  101.685394  0.0  4.313528  19.214727  -97.284855  31.159276  -25.149231  23.249812  -5.852358  6.466768  31.94107  -17.762467  -8.389262  -12.296647  -19.277451  6.208261  -41.677431  5.282989  6.33856  54.971337  20.023233  2.336386  2.444996  -3.064066  1.426459  2.579911  -8.222312  4.213515  6.86668  -8.222313  4.213515  6.86668  -10.996142  27.969275  3.067226  134.862996  70.147083  -161.887041  -39.628735  -35.796164  85.165041  38.432184  -20.213338  10.679547  13.980305  -8.016037  15.385063  72.469066  36.215977  25.17109  -37.85594  30.045559  -101.28893  77.712547  9.308992  21.824733  3.254829  -1.880024  -2.502931  2.433249  -1.423423  -1.867077  
0.0  101.685394  0.0  4.183292  18.954731  -97.335671  31.345657  -25.267115  23.220595  -5.955219  6.464392  31.679374  -17.564127  -8.159885  -12.063095  -19.317033  6.009189  -41.883526  4.413751  6.582953  55.032643  19.468054  2.39978  2.800241  -3.082305  1.400565  2.601968  -8.273145  4.14752  6.928744  -8.273144  4.147519  6.928744  -11.206285  28.02694  2.817519  134.691375  70.204857  -162.299422  -39.929083  -35.716022  85.297607  38.222927  -20.203317  10.627424  13.778905  -7.957473  15.148416  72.29295  36.013025  25.23733  -38.00478  30.144734  -101.443883  78.562463  9.664937  20.409586  3.174886  -1.970755  -2.804461  2.371942  -1.492718  -2.092964  
0.0  101.685394  0.0  4.132048  18.826377  -97.212667  31.439148  -25.256109  23.256073  -6.02036  6.454226  31.316308  -17.519695  -8.045142  -11.876237  -19.531597  5.745036  -42.210871  3.492447  7.0104  55.049242  19.07961  2.51128  3.157622  -3.098309  1.382992  2.603599  -8.318453  4.101474  6.934208  -8.318454  4.101474  6.934208  -11.263712  28.133127  2.662436  133.829423  70.30278  -163.091753  -40.203302  -35.653945  85.426759  38.013004  -20.201873  10.478208  13.682027  -7.895744  14.976232  71.698853  35.84344  25.159686  -38.021985  30.36085  -101.722997  78.732276  10.152262  18.917761  3.024822  -2.142778  -3.074234  2.257637  -1.622393  -2.294864  
0.0  101.685394  0.0  4.065083  18.585686  -96.991592  30.857785  -24.578664  22.815856  -5.565266  6.258478  31.349046  -17.028016  -7.654365  -11.47989  -19.68725  5.335117  -42.554419  2.65399  7.499984  55.03094  18.826204  2.580451  3.496065  -3.113501  1.369055  2.568191  -8.363595  4.060638  6.838138  -8.363595  4.060638  6.838137  -11.70328  28.0713  2.491509  133.830492  70.372523  -163.398729  -40.437237  -35.639048  85.501252  37.827622  -20.236995  10.203261  13.445504  -7.905647  14.758555  71.338309  35.441684  25.221955  -38.10271  30.66723  -101.979673  79.268076  10.210339  17.819448  2.840648  -2.281813  -3.32513  2.117858  -1.726917  -2.482971  
0.0  101.685394  0.0  4.02991  18.418806  -96.670784  30.814633  -24.292427  22.876715  -5.380482  6.133554  30.855001  -16.970506  -7.574438  -11.257503  -19.931855  4.806976  -42.89717  1.849347  8.120721  54.963158  18.600293  2.674729  3.787708  -3.123596  1.353574  2.514018  -8.396101  4.01269  6.691341  -8.396101  4.01269  6.691341  -11.819691  28.147883  2.461344  132.961742  70.493526  -164.196885  -40.589209  -35.654967  85.524877  37.681125  -20.310328  9.840498  13.325041  -7.917554  14.631637  70.598583  35.034892  25.125824  -38.134407  30.962906  -102.202528  79.156384  10.558905  16.099203  2.653036  -2.471573  -3.466115  1.975519  -1.868836  -2.588507  
0.0  101.685394  0.0  3.72148  17.017113  -97.207528  31.577168  -24.625916  23.444848  -5.092463  5.95944  30.358955  -16.869772  -7.491602  -11.000151  -18.948382  4.010975  -42.254488  1.112308  8.870351  54.839374  18.486231  2.789101  4.065118  -2.955108  1.323895  2.560414  -7.935392  3.920555  6.832179  -7.935391  3.920555  6.832179  -12.43721  28.06999  2.289103  133.48016  70.528577  -164.118825  -40.641812  -35.67335  85.542145  37.464648  -20.403596  9.529173  12.480386  -7.836809  14.152424  70.949269  34.038222  25.438831  -38.242093  31.203662  -102.345397  79.427362  10.734233  14.150278  2.53809  -2.596629  -3.547885  1.888234  -1.962321  -2.649723  
0.0  101.685394  0.0  3.707071  16.953192  -96.992922  31.179643  -24.213112  23.768094  -4.723771  5.74457  29.805312  -16.786412  -7.476224  -10.740881  -19.361235  3.277901  -42.259514  0.528058  9.622345  54.649434  18.215395  2.950975  4.274167  -2.99389  1.310167  2.510265  -8.045784  3.881049  6.694321  -8.045784  3.881049  6.694321  -12.537035  28.0574  2.183962  133.179353  70.459169  -164.277835  -40.603583  -35.605723  85.566304  37.165531  -20.527407  9.373592  12.294767  -7.699104  13.968881  70.173072  33.330427  25.192749  -38.111406  31.383859  -102.446838  79.462253  10.955718  12.170665  2.375285  -2.73609  -3.603338  1.765055  -2.06619  -2.691397  
0.0  101.685394  0.0  3.713854  16.852752  -96.868663  30.653479  -23.718577  24.235488  -4.289757  5.47003  29.208922  -16.622141  -7.462542  -10.448351  -19.789776  2.551725  -42.070095  0.050561  10.251548  54.406171  17.871574  3.176967  4.447366  -3.05079  1.299457  2.457093  -8.205557  3.850996  6.546799  -8.205557  3.850996  6.5468  -13.006838  28.013665  1.944177  133.734387  70.348677  -163.91776  -40.546832  -35.387774  85.591574  36.771477  -20.644636  9.33909  12.033883  -7.536134  13.748727  69.931373  32.397196  25.366645  -38.27444  31.39929  -102.549032  79.606196  11.235257  10.206921  2.293142  -2.824526  -3.596687  1.702944  -2.132009  -2.686408  
